# xmcd
#
# Track frame offsets:
#	150
#	14354
#	26653
#	42916
#	53225
#	66075
#	80966
#	91392
#	106095
#	117877
#
# Disc length: 1760 seconds
#
# Revision: 1
# Processed by: cddbd v1.5.2PL0 Copyright (c) Steve Scherf et al.
# Submitted via: audiograbber 1.83.01
#
DISCID=7e06de0a
DTITLE=Billie Jo Spears - Standing Tall (Vinyl)
DYEAR=1980
DGENRE=General Country
TTITLE0=Standing Tall
TTITLE1=Free To Be Lonely Again
TTITLE2=Love Ain't the Question (Love
TTITLE3=Callin' Baton Rouge
TTITLE4=I Can Wait
TTITLE5=Natural Attraction
TTITLE6=Let Down Your Hair Sweet Lady
TTITLE7=You Could Know As Much About a
TTITLE8=Freedom Song
TTITLE9=Any Old Wind That Blows
EXTD=
EXTT0=
EXTT1=
EXTT2=
EXTT3=
EXTT4=
EXTT5=
EXTT6=
EXTT7=
EXTT8=
EXTT9=
PLAYORDER=
